<svg version="1.2" xmlns="http://www.w3.org/2000/svg" viewBox="0 0 1175 1175" width="1175" height="1175">
	<style>
		.s0 { fill: #c6a04e } 
		.s1 { fill: #612854 } 
		.s2 { fill: none;stroke: #fefefe;stroke-miterlimit:10;stroke-width: 3.5 } 
		.s3 { fill: #fefefe } 
		.s4 { fill: none;stroke: #fefefe;stroke-linecap: round;stroke-linejoin: round;stroke-width: 7 } 
	</style>
	<g id="purple logo">
		<path id="&lt;Path&gt;" fill-rule="evenodd" class="s0" d="m579.25 1127.39c-148.87 0-269.2-120.33-269.2-269.2 0-148.86 120.33-269.19 269.2-269.19 148.86 0 269.19 120.33 269.19 269.19 0 148.87-120.33 269.2-269.19 269.2z"/>
		<path id="&lt;Path&gt;" fill-rule="evenodd" class="s1" d="m579.25 589c-148.87 0-269.2-120.33-269.2-269.2 0-148.86 120.33-269.19 269.2-269.19 148.86 0 269.19 120.33 269.19 269.19 0 148.87-120.33 269.2-269.19 269.2z"/>
		<path id="&lt;Path&gt;" class="s0" d="m1038.79 398.65c105.13 105.13 105.13 275.57 0 380.7-105.12 105.13-275.57 105.13-380.7 0-105.12-105.13-105.12-275.57 0-380.7 105.13-105.13 275.58-105.13 380.7 0z"/>
		<path id="&lt;Path&gt;" class="s0" d="m119.7 779.35c-105.12-105.13-105.12-275.57 0-380.7 105.13-105.13 275.58-105.13 380.7 0 105.13 105.13 105.13 275.57 0 380.7-105.12 105.13-275.57 105.13-380.7 0z"/>
		<path id="&lt;Path&gt;" class="s0" d="m959.95 208.3c105.13 105.12 105.13 275.57 0 380.7-105.13 105.13-275.57 105.13-380.7 0-105.13-105.13-105.13-275.58 0-380.7 105.13-105.13 275.57-105.13 380.7 0z"/>
		<path id="&lt;Path&gt;" class="s0" d="m198.55 969.7c-105.13-105.13-105.13-275.57 0-380.7 105.13-105.13 275.57-105.13 380.7 0 105.13 105.13 105.13 275.57 0 380.7-105.13 105.13-275.57 105.13-380.7 0z"/>
		<path id="&lt;Path&gt;" fill-rule="evenodd" class="s0" d="m769.6 1048.54c-148.87 0-269.2-120.33-269.2-269.19 0-148.87 120.33-269.2 269.2-269.2 148.86 0 269.19 120.33 269.19 269.2 0 148.86-120.33 269.19-269.19 269.19z"/>
		<path id="&lt;Path&gt;" fill-rule="evenodd" class="s0" d="m388.9 667.84c-148.87 0-269.2-120.33-269.2-269.19 0-148.87 120.33-269.2 269.2-269.2 148.86 0 269.19 120.33 269.19 269.2 0 148.86-120.33 269.19-269.19 269.19z"/>
		<path id="&lt;Path&gt;" fill-rule="evenodd" class="s0" d="m579.25 858.19c-148.87 0-269.2-120.33-269.2-269.19 0-148.87 120.33-269.2 269.2-269.2 148.86 0 269.19 120.33 269.19 269.2 0 148.86-120.33 269.19-269.19 269.19z"/>
		<path id="&lt;Path&gt;" class="s0" d="m848.45 857.95c0-148.68-120.53-269.2-269.2-269.2-148.67 0-269.2 120.52-269.2 269.2"/>
		<path id="&lt;Path&gt;" class="s0" d="m848.45 319.55c0 148.68-120.53 269.2-269.2 269.2-148.67 0-269.2-120.52-269.2-269.2"/>
		<path id="&lt;Path&gt;" class="s0" d="m310.05 857.95c148.68 0 269.2-120.53 269.2-269.2 0-148.67-120.52-269.2-269.2-269.2"/>
		<path id="&lt;Path&gt;" class="s0" d="m848.45 857.95c-148.68 0-269.2-120.53-269.2-269.2 0-148.67 120.52-269.2 269.2-269.2"/>
		<path id="&lt;Path&gt;" class="s0" d="m579.25 969.45c105.13-105.13 105.13-275.57 0-380.7-105.13-105.13-275.57-105.13-380.7 0"/>
		<path id="&lt;Path&gt;" class="s0" d="m959.95 588.75c-105.13 105.13-275.57 105.13-380.7 0-105.13-105.13-105.13-275.57 0-380.7"/>
		<path id="&lt;Path&gt;" class="s0" d="m198.55 588.75c105.13 105.13 275.57 105.13 380.7 0 105.13-105.13 105.13-275.57 0-380.7"/>
		<path id="&lt;Path&gt;" class="s0" d="m579.25 969.45c-105.13-105.13-105.13-275.57 0-380.7 105.13-105.13 275.57-105.13 380.7 0"/>
		<path id="&lt;Path&gt;" fill-rule="evenodd" class="s0" d="m579.25 856.65c-148.15 0-267.9-119.75-267.9-267.9 0-148.15 119.75-267.9 267.9-267.9 148.15 0 267.9 119.75 267.9 267.9 0 148.15-119.75 267.9-267.9 267.9z"/>
		<path id="&lt;Path&gt;" class="s0" d="m388.9 1048.3c48.71 48.71 116.01 78.84 190.35 78.84 74.34 0 141.63-30.13 190.35-78.84"/>
		<path id="&lt;Path&gt;" class="s0" d="m769.6 129.2c-48.72-48.71-116.01-78.84-190.35-78.84-74.34 0-141.64 30.13-190.35 78.84"/>
		<path id="&lt;Path&gt;" class="s0" d="m1038.8 779.1c105.12-105.13 105.12-275.57 0-380.7"/>
		<path id="&lt;Path&gt;" class="s0" d="m119.7 398.4c-105.12 105.13-105.12 275.57 0 380.7"/>
		<path id="&lt;Path&gt;" class="s0" d="m1038.8 398.4c0-68.89-26.29-137.79-78.85-190.35-52.56-52.56-121.46-78.85-190.35-78.85"/>
		<path id="&lt;Path&gt;" class="s0" d="m119.7 779.1c0 68.89 26.29 137.79 78.85 190.35 52.56 52.56 121.46 78.85 190.35 78.85"/>
		<path id="&lt;Path&gt;" class="s0" d="m388.9 129.2c-148.67 0-269.2 120.53-269.2 269.2"/>
		<path id="&lt;Path&gt;" class="s0" d="m769.6 1048.3c148.67 0 269.2-120.53 269.2-269.2"/>
		<path id="&lt;Path&gt;" class="s0" d="m658.35 779.4c-48.95-48.75-79.24-116.21-79.24-190.74 0-74.42 30.19-141.78 79-190.51"/>
		<path id="&lt;Path&gt;" class="s0" d="m500.26 779.4c48.95-48.75 79.24-116.21 79.24-190.74 0-74.42-30.19-141.78-79-190.51"/>
		<path id="&lt;Path&gt;" class="s0" d="m388.68 667.82c48.75-48.95 116.21-79.24 190.74-79.24 74.42 0 141.78 30.19 190.51 79"/>
		<path id="&lt;Path&gt;" class="s0" d="m388.68 509.73c48.75 48.95 116.21 79.24 190.74 79.24 74.42 0 141.78-30.19 190.51-79"/>
		<path id="&lt;Path&gt;" class="s0" d="m500.4 779.46c-0.14-69.08 26.14-138.2 78.85-190.91 52.62-52.62 121.6-78.9 190.57-78.84"/>
		<path id="&lt;Path&gt;" class="s0" d="m388.62 667.68c69.08 0.14 138.2-26.14 190.91-78.85 52.62-52.62 78.9-121.6 78.84-190.57"/>
		<path id="&lt;Path&gt;" class="s0" d="m388.62 509.87c69.08-0.14 138.2 26.14 190.91 78.85 52.62 52.62 78.9 121.6 78.84 190.57"/>
		<path id="&lt;Path&gt;" class="s0" d="m500.4 398.09c-0.14 69.08 26.14 138.2 78.85 190.91 52.62 52.62 121.6 78.9 190.57 78.84"/>
		<path id="&lt;Path&gt;" fill-rule="evenodd" class="s2" d="m579.25 1127.39c-148.87 0-269.2-120.33-269.2-269.2 0-148.86 120.33-269.19 269.2-269.19 148.86 0 269.19 120.33 269.19 269.19 0 148.87-120.33 269.2-269.19 269.2z"/>
		<path id="&lt;Path&gt;" fill-rule="evenodd" class="s2" d="m579.25 589c-148.87 0-269.2-120.33-269.2-269.2 0-148.86 120.33-269.19 269.2-269.19 148.86 0 269.19 120.33 269.19 269.19 0 148.87-120.33 269.2-269.19 269.2z"/>
		<path id="&lt;Path&gt;" class="s2" d="m1038.79 398.65c105.13 105.13 105.13 275.57 0 380.7-105.12 105.13-275.57 105.13-380.7 0-105.12-105.13-105.12-275.57 0-380.7 105.13-105.13 275.58-105.13 380.7 0z"/>
		<path id="&lt;Path&gt;" class="s2" d="m119.7 779.35c-105.12-105.13-105.12-275.57 0-380.7 105.13-105.13 275.58-105.13 380.7 0 105.13 105.13 105.13 275.57 0 380.7-105.12 105.13-275.57 105.13-380.7 0z"/>
		<path id="&lt;Path&gt;" class="s2" d="m959.95 208.3c105.13 105.12 105.13 275.57 0 380.7-105.13 105.13-275.57 105.13-380.7 0-105.13-105.13-105.13-275.58 0-380.7 105.13-105.13 275.57-105.13 380.7 0z"/>
		<path id="&lt;Path&gt;" class="s2" d="m198.55 969.7c-105.13-105.13-105.13-275.57 0-380.7 105.13-105.13 275.57-105.13 380.7 0 105.13 105.13 105.13 275.57 0 380.7-105.13 105.13-275.57 105.13-380.7 0z"/>
		<path id="&lt;Path&gt;" fill-rule="evenodd" class="s2" d="m769.6 1048.54c-148.87 0-269.2-120.33-269.2-269.19 0-148.87 120.33-269.2 269.2-269.2 148.86 0 269.19 120.33 269.19 269.2 0 148.86-120.33 269.19-269.19 269.19z"/>
		<path id="&lt;Path&gt;" fill-rule="evenodd" class="s2" d="m388.9 667.84c-148.87 0-269.2-120.33-269.2-269.19 0-148.87 120.33-269.2 269.2-269.2 148.86 0 269.19 120.33 269.19 269.2 0 148.86-120.33 269.19-269.19 269.19z"/>
		<path id="&lt;Path&gt;" fill-rule="evenodd" class="s2" d="m579.25 858.19c-148.87 0-269.2-120.33-269.2-269.19 0-148.87 120.33-269.2 269.2-269.2 148.86 0 269.19 120.33 269.19 269.2 0 148.86-120.33 269.19-269.19 269.19z"/>
		<path id="&lt;Path&gt;" class="s3" d="m848.45 857.95c1.23-5.71 2.33-10.58 2.77-15.75 0.18-2.58 0.27-5.23 0.25-8.11-0.02-1.44-0.03-2.94-0.14-4.5q-0.21-2.33-0.52-4.91c-0.24-1.87-0.58-4.67-1.02-8.14q-0.45-2.59-0.98-5.64-0.63-3.51-1.28-7.14c-0.52-2.7-1.22-5.41-1.83-8.18-1.16-5.56-2.85-11.14-4.47-16.87-3.56-11.37-7.71-23.15-13.18-34.74q-0.99-2.19-1.99-4.4-1.1-2.16-2.2-4.33c-1.5-2.88-2.92-5.82-4.51-8.69q-2.46-4.27-4.94-8.59c-1.61-2.9-3.54-5.62-5.3-8.46-7.27-11.21-15.37-22.15-24.43-32.27-9.03-10.13-18.61-19.84-28.98-28.41-20.55-17.36-43.2-31.21-65.44-41-22.16-10.04-43.91-15.78-62.53-19.16q-3.5-0.62-6.84-1.21-3.36-0.43-6.56-0.84-3.2-0.4-6.22-0.79c-2.01-0.24-3.98-0.33-5.88-0.49-3.8-0.25-7.34-0.64-10.63-0.72q-4.92-0.12-9-0.22c-2.71-0.12-5.12-0.06-7.22 0.01q-3.15 0.08-5.32 0.14c-2.88 0.07-4.41 0.11-4.41 0.11 0 0-0.38-0.01-1.12 0.06q-1.12 0.08-3.28 0.25c-2.87 0.27-7.12 0.41-12.5 1.08-10.78 1.17-26.24 3.59-44.49 8.74-18.19 5.2-39.24 13.14-60.3 25.32-21.14 11.95-42.32 27.96-61.04 47.28-9.45 9.57-18.09 20.13-26.04 31.13-1.93 2.8-4.02 5.47-5.81 8.36q-2.74 4.28-5.48 8.55c-3.38 5.85-6.89 11.61-9.82 17.62-3.17 5.89-5.78 12-8.5 17.98-2.39 6.12-4.98 12.09-6.91 18.21-0.99 3.04-2.13 6.02-2.97 9.06q-1.29 4.56-2.57 9.04c-0.91 2.96-1.45 6-2.18 8.95q-0.51 2.23-1.02 4.43l-0.5 2.2-0.28 1.55c-0.8 4.52-1.52 8.63-2.13 12.08-0.44 3.47-0.78 6.27-1.02 8.14q-0.31 2.58-0.52 4.91c-0.11 1.57-0.12 3.06-0.14 4.5-0.02 2.88 0.07 5.53 0.25 8.11 0.44 5.17 1.54 10.04 2.77 15.75 1.61-5.7 2.7-10.42 3.74-15.38 0.56-2.47 1.05-5.01 1.45-7.77q0.28-2.06 0.58-4.32 0.37-2.24 0.7-4.73c0.23-1.81 0.58-4.51 1.02-7.87 0.59-3.33 1.3-7.31 2.08-11.68l0.27-1.5 0.48-2.13q0.5-2.13 0.99-4.28c0.72-2.85 1.22-5.79 2.12-8.66q1.23-4.33 2.48-8.73c0.81-2.95 1.92-5.82 2.87-8.77 1.86-5.92 4.37-11.69 6.68-17.61 2.64-5.78 5.15-11.69 8.22-17.39 2.83-5.81 6.24-11.38 9.5-17.04q2.65-4.13 5.31-8.27c1.72-2.79 3.75-5.38 5.61-8.09 7.69-10.64 16.04-20.86 25.19-30.12 18.11-18.69 38.59-34.19 59.05-45.75 20.36-11.79 40.71-19.47 58.31-24.51 17.65-4.98 32.6-7.33 43.03-8.47 5.21-0.65 9.32-0.78 12.1-1.05q2.09-0.16 3.17-0.24c0.71-0.07 1.08-0.06 1.08-0.06 0 0 1.48-0.04 4.27-0.11q2.1-0.05 5.15-0.13c2.04-0.07 4.37-0.12 7-0.01q3.94 0.1 8.71 0.22c3.18 0.07 6.6 0.46 10.28 0.7 1.84 0.16 3.75 0.24 5.69 0.48q2.93 0.37 6.02 0.77 3.09 0.39 6.35 0.8 3.23 0.58 6.61 1.18c18.01 3.28 39.05 8.83 60.48 18.55 21.5 9.48 43.41 22.87 63.28 39.67 10.04 8.29 19.3 17.7 28.04 27.49 8.77 9.8 16.6 20.38 23.63 31.22 1.71 2.75 3.58 5.38 5.13 8.19q2.4 4.17 4.77 8.3c1.54 2.78 2.92 5.63 4.37 8.41q1.07 2.1 2.13 4.19 0.96 2.13 1.92 4.25c5.3 11.21 9.3 22.61 12.75 33.6 1.56 5.55 3.2 10.94 4.32 16.31 0.6 2.68 1.27 5.3 1.78 7.91q0.63 3.51 1.23 6.91 0.53 2.94 0.97 5.45c0.44 3.36 0.79 6.06 1.02 7.87q0.33 2.49 0.7 4.73 0.3 2.25 0.58 4.32c0.4 2.76 0.89 5.3 1.45 7.77 1.04 4.96 2.13 9.68 3.74 15.38z"/>
		<path id="&lt;Path&gt;" class="s3" d="m848.45 319.55c-1.61 5.7-2.7 10.42-3.74 15.38-0.57 2.47-1.05 5.01-1.45 7.77q-0.28 2.07-0.58 4.32-0.37 2.24-0.7 4.73c-0.23 1.81-0.58 4.51-1.02 7.87q-0.44 2.51-0.97 5.45-0.6 3.4-1.23 6.91c-0.51 2.61-1.18 5.23-1.78 7.91-1.12 5.37-2.76 10.77-4.32 16.31-3.45 10.99-7.45 22.39-12.75 33.6q-0.96 2.12-1.92 4.25-1.06 2.09-2.13 4.19c-1.45 2.78-2.83 5.63-4.37 8.41q-2.37 4.13-4.77 8.3c-1.55 2.81-3.42 5.44-5.13 8.19-7.03 10.84-14.86 21.43-23.63 31.22-8.74 9.79-18 19.2-28.04 27.49-19.87 16.8-41.78 30.19-63.28 39.67-21.43 9.72-42.47 15.27-60.48 18.55q-3.38 0.6-6.61 1.18-3.26 0.41-6.35 0.8-3.09 0.4-6.02 0.77c-1.94 0.24-3.85 0.32-5.69 0.48-3.68 0.24-7.1 0.63-10.28 0.7q-4.77 0.12-8.71 0.22c-2.63 0.11-4.96 0.06-7-0.01q-3.05-0.08-5.15-0.13c-2.79-0.07-4.27-0.11-4.27-0.11 0 0-0.37 0.01-1.08-0.06q-1.08-0.08-3.17-0.24c-2.78-0.27-6.89-0.4-12.1-1.05-10.43-1.14-25.38-3.49-43.03-8.47-17.6-5.04-37.95-12.72-58.32-24.51-20.45-11.56-40.93-27.06-59.04-45.75-9.15-9.26-17.5-19.48-25.19-30.12-1.86-2.71-3.89-5.3-5.62-8.09q-2.65-4.14-5.3-8.27c-3.26-5.66-6.67-11.23-9.5-17.04-3.07-5.7-5.58-11.61-8.22-17.39-2.31-5.92-4.82-11.69-6.68-17.61-0.95-2.95-2.06-5.82-2.87-8.77q-1.25-4.4-2.48-8.73c-0.9-2.87-1.4-5.81-2.12-8.66q-0.49-2.15-0.99-4.28l-0.48-2.13-0.27-1.5c-0.78-4.37-1.49-8.35-2.08-11.68-0.44-3.36-0.79-6.06-1.02-7.87q-0.33-2.49-0.7-4.73-0.3-2.26-0.58-4.32c-0.4-2.76-0.89-5.3-1.45-7.77-1.04-4.96-2.13-9.68-3.74-15.38-1.23 5.71-2.33 10.58-2.77 15.75-0.18 2.58-0.27 5.23-0.25 8.11 0.02 1.44 0.03 2.94 0.14 4.5q0.21 2.33 0.52 4.91c0.24 1.87 0.58 4.67 1.02 8.14 0.61 3.45 1.33 7.56 2.13 12.08l0.28 1.55 0.5 2.2q0.51 2.2 1.02 4.43c0.73 2.95 1.27 5.99 2.18 8.95q1.28 4.48 2.57 9.04c0.84 3.04 1.98 6.02 2.97 9.06 1.93 6.12 4.52 12.09 6.91 18.21 2.72 5.98 5.33 12.09 8.5 17.98 2.93 6.01 6.44 11.77 9.82 17.62q2.74 4.27 5.48 8.55c1.79 2.89 3.88 5.56 5.81 8.36 7.95 11 16.59 21.56 26.04 31.13 18.72 19.32 39.9 35.33 61.04 47.28 21.06 12.18 42.11 20.12 60.3 25.32 18.25 5.15 33.71 7.57 44.49 8.75 5.38 0.66 9.63 0.8 12.5 1.07q2.16 0.17 3.28 0.25c0.74 0.07 1.12 0.06 1.12 0.06 0 0 1.53 0.04 4.41 0.11q2.17 0.06 5.32 0.14c2.1 0.07 4.51 0.13 7.22 0.01q4.08-0.1 9-0.22c3.29-0.08 6.83-0.47 10.63-0.72 1.9-0.16 3.87-0.25 5.88-0.49q3.02-0.39 6.22-0.79 3.2-0.41 6.56-0.83 3.34-0.6 6.84-1.22c18.62-3.38 40.37-9.12 62.53-19.16 22.24-9.79 44.89-23.64 65.44-41 10.37-8.57 19.95-18.28 28.98-28.41 9.06-10.12 17.16-21.06 24.43-32.27 1.76-2.83 3.69-5.56 5.3-8.46q2.48-4.32 4.94-8.59c1.59-2.87 3.01-5.81 4.51-8.69q1.1-2.17 2.2-4.33 1-2.21 1.99-4.4c5.47-11.59 9.62-23.37 13.18-34.74 1.62-5.73 3.31-11.31 4.47-16.87 0.61-2.77 1.31-5.48 1.83-8.18q0.65-3.63 1.28-7.14 0.53-3.05 0.98-5.64c0.44-3.47 0.78-6.27 1.02-8.14q0.31-2.58 0.52-4.91c0.11-1.56 0.12-3.06 0.14-4.5 0.02-2.88-0.07-5.53-0.25-8.11-0.44-5.17-1.54-10.04-2.77-15.75z"/>
		<path id="&lt;Path&gt;" class="s3" d="m310.05 857.95c5.71 1.23 10.59 2.33 15.75 2.77 2.58 0.18 5.23 0.27 8.11 0.25 1.44-0.02 2.94-0.03 4.5-0.14q2.33-0.21 4.91-0.52c1.87-0.24 4.67-0.58 8.14-1.02q2.59-0.45 5.64-0.98 3.51-0.63 7.14-1.28c2.7-0.52 5.41-1.22 8.18-1.83 5.56-1.16 11.14-2.85 16.87-4.47 11.37-3.56 23.15-7.71 34.74-13.18q2.19-0.99 4.4-1.99 2.16-1.1 4.33-2.2c2.88-1.5 5.82-2.92 8.69-4.51q4.27-2.46 8.59-4.94c2.9-1.61 5.62-3.54 8.46-5.3 11.21-7.27 22.15-15.37 32.27-24.43 10.13-9.03 19.84-18.61 28.41-28.98 17.36-20.55 31.21-43.2 41-65.44 10.04-22.16 15.78-43.91 19.16-62.53q0.62-3.5 1.21-6.84 0.43-3.36 0.84-6.56 0.4-3.2 0.79-6.22c0.24-2.01 0.33-3.98 0.49-5.88 0.25-3.8 0.64-7.34 0.72-10.62q0.12-4.93 0.22-9c0.12-2.72 0.06-5.13-0.01-7.23q-0.08-3.15-0.14-5.32c-0.07-2.88-0.11-4.41-0.11-4.41 0 0 0.01-0.38-0.06-1.12q-0.08-1.12-0.25-3.28c-0.27-2.87-0.41-7.12-1.07-12.5-1.18-10.78-3.6-26.24-8.75-44.49-5.2-18.19-13.14-39.24-25.32-60.3-11.95-21.14-27.96-42.32-47.28-61.04-9.57-9.45-20.13-18.09-31.13-26.04-2.8-1.92-5.47-4.02-8.36-5.8q-4.28-2.75-8.55-5.49c-5.85-3.38-11.61-6.89-17.62-9.82-5.89-3.17-12-5.78-17.98-8.5-6.12-2.39-12.09-4.98-18.21-6.91-3.04-0.99-6.02-2.13-9.06-2.97q-4.56-1.29-9.04-2.56c-2.96-0.92-6-1.46-8.95-2.19q-2.23-0.51-4.43-1.02l-2.2-0.5-1.55-0.28c-4.52-0.8-8.63-1.52-12.08-2.13-3.47-0.43-6.27-0.78-8.14-1.02q-2.58-0.31-4.91-0.52c-1.57-0.11-3.06-0.12-4.5-0.14-2.88-0.02-5.53 0.07-8.11 0.25-5.17 0.44-10.04 1.54-15.75 2.77 5.7 1.61 10.42 2.7 15.38 3.74 2.47 0.56 5.01 1.05 7.77 1.45q2.06 0.28 4.32 0.58 2.24 0.37 4.73 0.7c1.81 0.23 4.51 0.58 7.87 1.02 3.33 0.59 7.31 1.3 11.68 2.08l1.5 0.27 2.13 0.49q2.13 0.49 4.28 0.98c2.85 0.72 5.79 1.23 8.66 2.12q4.33 1.23 8.73 2.48c2.95 0.81 5.82 1.92 8.77 2.88 5.92 1.85 11.69 4.37 17.61 6.67 5.78 2.64 11.69 5.15 17.39 8.22 5.81 2.83 11.38 6.24 17.04 9.5q4.13 2.65 8.27 5.31c2.79 1.72 5.38 3.75 8.09 5.61 10.64 7.69 20.86 16.04 30.12 25.19 18.69 18.11 34.19 38.59 45.75 59.05 11.79 20.36 19.47 40.71 24.51 58.31 4.98 17.65 7.33 32.6 8.47 43.03 0.65 5.21 0.78 9.32 1.05 12.1q0.16 2.09 0.24 3.17c0.07 0.71 0.06 1.09 0.06 1.09 0 0 0.04 1.47 0.11 4.26q0.05 2.1 0.13 5.15c0.07 2.04 0.12 4.37 0.01 7q-0.1 3.94-0.22 8.71c-0.07 3.18-0.46 6.6-0.7 10.28-0.16 1.84-0.24 3.74-0.48 5.69q-0.37 2.93-0.77 6.02-0.39 3.09-0.8 6.35-0.58 3.23-1.18 6.61c-3.28 18.01-8.83 39.05-18.55 60.48-9.48 21.5-22.87 43.41-39.67 63.28-8.29 10.04-17.7 19.3-27.49 28.04-9.8 8.77-20.38 16.6-31.22 23.63-2.75 1.71-5.38 3.58-8.19 5.13q-4.17 2.4-8.3 4.77c-2.78 1.54-5.63 2.92-8.41 4.37q-2.1 1.07-4.19 2.13-2.13 0.96-4.25 1.92c-11.21 5.3-22.61 9.3-33.6 12.75-5.55 1.56-10.94 3.2-16.31 4.32-2.68 0.6-5.3 1.27-7.91 1.78q-3.51 0.63-6.91 1.23-2.94 0.53-5.45 0.97c-3.36 0.44-6.06 0.79-7.87 1.02q-2.49 0.33-4.73 0.7-2.26 0.3-4.32 0.58c-2.76 0.4-5.3 0.89-7.77 1.45-4.96 1.04-9.68 2.13-15.38 3.74z"/>
		<path id="&lt;Path&gt;" class="s3" d="m848.45 857.95c-5.7-1.61-10.42-2.7-15.38-3.74-2.47-0.56-5.01-1.05-7.77-1.45q-2.07-0.28-4.32-0.58-2.24-0.37-4.73-0.7c-1.81-0.23-4.51-0.58-7.87-1.02q-2.51-0.44-5.45-0.97-3.4-0.6-6.91-1.23c-2.61-0.51-5.23-1.18-7.91-1.78-5.37-1.12-10.77-2.76-16.31-4.32-10.99-3.44-22.39-7.45-33.6-12.75q-2.12-0.96-4.25-1.92-2.09-1.06-4.19-2.13c-2.78-1.45-5.63-2.83-8.41-4.37q-4.13-2.37-8.3-4.77c-2.81-1.55-5.44-3.42-8.19-5.13-10.84-7.03-21.43-14.86-31.22-23.63-9.79-8.74-19.2-18-27.49-28.04-16.8-19.87-30.19-41.78-39.67-63.28-9.72-21.43-15.27-42.47-18.55-60.48q-0.6-3.38-1.18-6.61-0.41-3.26-0.81-6.35-0.39-3.09-0.76-6.02c-0.24-1.95-0.32-3.85-0.48-5.69-0.24-3.68-0.63-7.1-0.7-10.28q-0.12-4.77-0.22-8.71c-0.11-2.63-0.06-4.96 0.01-7q0.08-3.05 0.13-5.15c0.07-2.79 0.11-4.26 0.11-4.26 0 0-0.01-0.38 0.06-1.09q0.08-1.08 0.24-3.17c0.27-2.78 0.4-6.89 1.05-12.1 1.14-10.43 3.49-25.38 8.47-43.03 5.04-17.6 12.72-37.95 24.51-58.31 11.56-20.46 27.06-40.94 45.75-59.05 9.26-9.15 19.48-17.5 30.12-25.19 2.71-1.86 5.3-3.89 8.09-5.61q4.14-2.66 8.27-5.31c5.66-3.26 11.23-6.67 17.04-9.5 5.7-3.07 11.61-5.58 17.39-8.22 5.92-2.31 11.69-4.82 17.61-6.67 2.95-0.96 5.82-2.07 8.77-2.88q4.4-1.25 8.73-2.48c2.87-0.9 5.81-1.4 8.66-2.12q2.15-0.49 4.28-0.98l2.13-0.49 1.5-0.27c4.37-0.78 8.35-1.49 11.68-2.08 3.36-0.44 6.06-0.79 7.87-1.02q2.49-0.33 4.73-0.7 2.26-0.3 4.32-0.58c2.76-0.4 5.3-0.89 7.77-1.45 4.96-1.04 9.68-2.13 15.38-3.74-5.71-1.23-10.58-2.33-15.75-2.77-2.58-0.18-5.23-0.27-8.11-0.25-1.44 0.02-2.94 0.03-4.5 0.14q-2.33 0.21-4.91 0.52c-1.87 0.24-4.67 0.59-8.14 1.02-3.45 0.61-7.56 1.33-12.08 2.13l-1.55 0.28-2.2 0.5q-2.2 0.51-4.43 1.02c-2.95 0.73-5.99 1.27-8.95 2.19q-4.48 1.27-9.04 2.56c-3.04 0.84-6.02 1.98-9.06 2.97-6.12 1.93-12.09 4.52-18.21 6.91-5.98 2.72-12.09 5.33-17.98 8.5-6.01 2.93-11.77 6.44-17.62 9.82q-4.27 2.74-8.55 5.49c-2.89 1.78-5.56 3.87-8.36 5.8-11 7.95-21.56 16.59-31.13 26.04-19.32 18.72-35.33 39.9-47.28 61.04-12.18 21.06-20.12 42.11-25.32 60.3-5.15 18.25-7.57 33.71-8.75 44.49-0.66 5.38-0.8 9.63-1.07 12.5q-0.17 2.16-0.25 3.28c-0.07 0.74-0.06 1.12-0.06 1.12 0 0-0.04 1.53-0.11 4.41q-0.06 2.17-0.14 5.32c-0.07 2.1-0.13 4.51-0.01 7.23q0.1 4.07 0.22 9c0.08 3.28 0.47 6.82 0.72 10.62 0.16 1.9 0.25 3.87 0.49 5.88q0.39 3.02 0.79 6.22 0.41 3.2 0.83 6.56 0.6 3.34 1.22 6.84c3.38 18.62 9.12 40.37 19.16 62.53 9.79 22.24 23.64 44.89 41 65.44 8.57 10.37 18.28 19.95 28.41 28.98 10.12 9.06 21.06 17.16 32.27 24.43 2.83 1.77 5.56 3.69 8.46 5.3q4.31 2.48 8.59 4.94c2.87 1.59 5.81 3.01 8.69 4.51q2.17 1.1 4.33 2.2 2.21 1 4.4 1.99c11.59 5.47 23.37 9.62 34.74 13.18 5.73 1.62 11.31 3.31 16.87 4.47 2.77 0.61 5.48 1.31 8.18 1.83q3.63 0.65 7.14 1.28 3.05 0.53 5.64 0.98c3.47 0.44 6.27 0.78 8.14 1.02q2.58 0.31 4.91 0.52c1.56 0.11 3.06 0.12 4.5 0.14 2.88 0.02 5.53-0.07 8.11-0.25 5.16-0.44 10.04-1.54 15.75-2.77z"/>
		<path id="&lt;Path&gt;" class="s3" d="m579.25 969.45c4.91-3.16 9.13-5.83 13.09-9.17 1.96-1.7 3.9-3.51 5.92-5.56 1-1.03 2.05-2.1 3.08-3.28q1.5-1.8 3.1-3.84c1.16-1.49 2.89-3.71 5.04-6.48q1.51-2.15 3.29-4.68 2.04-2.93 4.15-5.95c1.54-2.28 2.96-4.69 4.49-7.08 3.11-4.75 5.85-9.89 8.76-15.09 5.53-10.55 10.92-21.82 15.25-33.89q0.85-2.25 1.7-4.51 0.75-2.3 1.51-4.62c0.97-3.09 2.05-6.18 2.96-9.34q1.28-4.76 2.58-9.56c0.91-3.19 1.48-6.48 2.23-9.73 2.79-13.07 4.8-26.53 5.55-40.09 0.77-13.55 0.86-27.19-0.41-40.59-2.25-26.81-8.48-52.61-17.28-75.26-8.57-22.76-19.89-42.21-30.67-57.76q-2.03-2.91-3.97-5.7-2.08-2.68-4.05-5.23-1.98-2.54-3.84-4.95c-1.25-1.6-2.59-3.05-3.81-4.51-2.51-2.86-4.74-5.65-7.01-8.02q-3.39-3.57-6.2-6.52c-1.84-2-3.59-3.67-5.12-5.1q-2.29-2.17-3.86-3.67c-2.09-1.98-3.2-3.04-3.2-3.04 0 0-0.26-0.27-0.83-0.75q-0.85-0.73-2.5-2.14c-2.22-1.84-5.32-4.74-9.6-8.08-8.45-6.79-21.1-16.01-37.64-25.27-16.54-9.19-37.04-18.46-60.54-24.73-23.4-6.51-49.7-10.16-76.6-9.73-13.45 0.08-27.02 1.43-40.42 3.6-3.34 0.61-6.72 1.02-10.02 1.8q-4.97 1.09-9.92 2.17c-6.53 1.74-13.08 3.33-19.41 5.51-6.4 1.92-12.57 4.4-18.72 6.7-6.02 2.64-12.07 5.03-17.76 8-2.85 1.45-5.76 2.75-8.51 4.3q-4.14 2.31-8.2 4.58c-2.75 1.45-5.27 3.22-7.88 4.79q-1.94 1.21-3.85 2.4l-1.91 1.2-1.3 0.91c-3.75 2.63-7.18 5.02-10.04 7.03-2.76 2.15-4.99 3.88-6.47 5.04q-2.05 1.6-3.85 3.1c-1.18 1.03-2.25 2.08-3.28 3.08-2.05 2.02-3.86 3.96-5.56 5.92-3.34 3.96-6.01 8.18-9.17 13.09 5.16-2.9 9.27-5.46 13.51-8.23 2.15-1.35 4.29-2.81 6.53-4.47q1.65-1.26 3.46-2.64 1.84-1.33 3.84-2.86c1.44-1.11 3.6-2.77 6.28-4.84 2.78-1.93 6.09-4.24 9.73-6.78l1.26-0.88 1.84-1.16q1.85-1.15 3.73-2.32c2.52-1.52 4.96-3.24 7.62-4.63q3.93-2.2 7.93-4.43c2.65-1.5 5.47-2.75 8.23-4.16 5.5-2.87 11.36-5.18 17.17-7.73 5.95-2.22 11.91-4.63 18.11-6.48 6.12-2.11 12.46-3.64 18.77-5.34q4.79-1.04 9.6-2.1c3.19-0.75 6.46-1.15 9.69-1.74 12.96-2.09 26.09-3.41 39.11-3.49 26.02-0.41 51.46 3.11 74.1 9.4 22.74 6.06 42.56 15.02 58.56 23.91 16.01 8.95 28.24 17.86 36.42 24.43 4.14 3.22 7.14 6.04 9.3 7.81q1.59 1.37 2.41 2.07c0.55 0.46 0.81 0.73 0.81 0.73 0 0 1.07 1.02 3.1 2.94q1.52 1.45 3.73 3.55c1.48 1.39 3.18 3 4.95 4.94q2.72 2.86 6.01 6.32c2.19 2.29 4.34 4.99 6.77 7.76 1.19 1.41 2.48 2.82 3.69 4.36q1.8 2.33 3.71 4.8 1.91 2.46 3.92 5.06 1.88 2.69 3.84 5.51c10.42 15.05 21.37 33.85 29.65 55.88 8.5 21.9 14.52 46.87 16.7 72.8 1.23 12.96 1.13 26.16 0.38 39.27-0.72 13.12-2.67 26.14-5.36 38.78-0.74 3.15-1.28 6.33-2.17 9.42q-1.25 4.64-2.49 9.24c-0.88 3.06-1.92 6.04-2.86 9.04q-0.73 2.24-1.46 4.46-0.82 2.19-1.65 4.37c-4.18 11.67-9.4 22.56-14.74 32.77-2.81 5.03-5.46 10-8.47 14.59-1.48 2.31-2.85 4.65-4.34 6.85q-2.04 2.93-4.01 5.76-1.71 2.45-3.17 4.54c-2.07 2.68-3.73 4.84-4.84 6.28q-1.53 2-2.86 3.84-1.38 1.81-2.64 3.46c-1.66 2.24-3.12 4.38-4.47 6.53-2.77 4.24-5.33 8.35-8.23 13.51z"/>
		<path id="&lt;Path&gt;" class="s3" d="m959.95 588.75c-5.16 2.9-9.27 5.46-13.51 8.23-2.15 1.35-4.29 2.81-6.53 4.47q-1.65 1.26-3.46 2.64-1.84 1.33-3.84 2.86c-1.44 1.11-3.6 2.77-6.28 4.84q-2.09 1.46-4.54 3.17-2.83 1.97-5.76 4.01c-2.2 1.49-4.54 2.87-6.85 4.34-4.59 3.01-9.56 5.66-14.59 8.47-10.21 5.34-21.1 10.57-32.77 14.75q-2.18 0.82-4.37 1.64-2.22 0.73-4.46 1.46c-3 0.94-5.98 1.98-9.04 2.86q-4.6 1.24-9.24 2.49c-3.09 0.89-6.27 1.43-9.42 2.17-12.64 2.69-25.66 4.64-38.78 5.36-13.11 0.75-26.31 0.85-39.27-0.38-25.93-2.18-50.9-8.2-72.8-16.7-22.03-8.28-40.83-19.23-55.88-29.65q-2.82-1.96-5.51-3.84-2.6-2.01-5.06-3.92-2.47-1.91-4.8-3.71c-1.54-1.21-2.95-2.5-4.36-3.69-2.77-2.43-5.47-4.58-7.76-6.77q-3.46-3.29-6.32-6.01c-1.94-1.77-3.55-3.47-4.94-4.95q-2.1-2.21-3.55-3.73c-1.92-2.03-2.94-3.1-2.94-3.1 0 0-0.27-0.26-0.73-0.81q-0.7-0.82-2.07-2.41c-1.77-2.16-4.59-5.16-7.81-9.3-6.57-8.18-15.48-20.41-24.43-36.42-8.89-16-17.85-35.82-23.91-58.56-6.29-22.64-9.81-48.08-9.4-74.1 0.07-13.02 1.4-26.15 3.49-39.11 0.59-3.23 0.99-6.5 1.74-9.69q1.05-4.81 2.1-9.6c1.7-6.31 3.22-12.65 5.34-18.77 1.85-6.2 4.25-12.16 6.48-18.11 2.55-5.81 4.86-11.67 7.73-17.17 1.41-2.76 2.66-5.58 4.16-8.23q2.23-4 4.43-7.93c1.39-2.66 3.11-5.1 4.63-7.62q1.17-1.87 2.32-3.73l1.16-1.84 0.88-1.26c2.53-3.64 4.85-6.95 6.78-9.73 2.07-2.68 3.73-4.84 4.84-6.28q1.53-2 2.86-3.84 1.38-1.81 2.64-3.46c1.66-2.24 3.12-4.38 4.47-6.53 2.77-4.24 5.33-8.35 8.23-13.51-4.91 3.16-9.13 5.83-13.09 9.17-1.96 1.7-3.89 3.51-5.92 5.56-1 1.03-2.05 2.1-3.08 3.28q-1.5 1.8-3.1 3.85c-1.16 1.48-2.89 3.71-5.04 6.47-2.01 2.86-4.4 6.28-7.03 10.04l-0.91 1.3-1.2 1.91q-1.19 1.91-2.4 3.85c-1.57 2.61-3.34 5.13-4.79 7.88q-2.27 4.06-4.58 8.2c-1.55 2.75-2.85 5.66-4.3 8.51-2.97 5.69-5.36 11.74-8 17.76-2.3 6.15-4.78 12.32-6.7 18.72-2.18 6.33-3.77 12.88-5.51 19.41q-1.08 4.95-2.17 9.92c-0.78 3.3-1.19 6.68-1.8 10.02-2.17 13.4-3.53 26.97-3.6 40.43-0.43 26.89 3.22 53.19 9.73 76.59 6.27 23.5 15.54 44 24.73 60.54 9.26 16.54 18.48 29.19 25.27 37.64 3.34 4.28 6.24 7.38 8.08 9.6q1.41 1.65 2.14 2.5c0.48 0.57 0.75 0.83 0.75 0.83 0 0 1.06 1.11 3.04 3.2q1.5 1.57 3.67 3.86c1.43 1.53 3.1 3.28 5.1 5.12q2.95 2.81 6.52 6.2c2.37 2.27 5.16 4.5 8.02 7.01 1.46 1.22 2.91 2.56 4.51 3.81q2.41 1.86 4.95 3.84 2.55 1.97 5.23 4.05 2.78 1.94 5.7 3.97c15.55 10.78 35 22.1 57.76 30.67 22.65 8.8 48.45 15.03 75.26 17.28 13.4 1.28 27.04 1.18 40.59 0.41 13.56-0.75 27.02-2.76 40.09-5.54 3.25-0.76 6.54-1.33 9.73-2.24q4.8-1.3 9.56-2.58c3.16-0.91 6.24-1.99 9.34-2.96q2.32-0.76 4.62-1.51 2.26-0.85 4.51-1.7c12.07-4.32 23.34-9.72 33.89-15.25 5.2-2.91 10.34-5.65 15.09-8.76 2.39-1.52 4.8-2.95 7.08-4.49q3.02-2.11 5.95-4.15 2.53-1.78 4.68-3.29c2.77-2.15 4.99-3.88 6.48-5.04q2.04-1.6 3.84-3.1c1.18-1.03 2.25-2.08 3.28-3.08 2.05-2.02 3.86-3.96 5.56-5.92 3.34-3.96 6.01-8.18 9.17-13.09z"/>
		<path id="&lt;Path&gt;" class="s3" d="m198.55 588.75c3.16 4.91 5.83 9.13 9.17 13.1 1.7 1.95 3.51 3.89 5.56 5.91 1.03 1 2.1 2.05 3.28 3.08q1.8 1.5 3.84 3.1c1.49 1.16 3.71 2.89 6.48 5.04q2.15 1.51 4.68 3.29 2.93 2.04 5.95 4.15c2.28 1.54 4.69 2.97 7.08 4.49 4.75 3.11 9.89 5.85 15.09 8.76 10.55 5.53 21.82 10.93 33.89 15.25q2.25 0.85 4.51 1.7 2.3 0.75 4.62 1.51c3.1 0.97 6.18 2.05 9.34 2.96q4.76 1.28 9.56 2.58c3.19 0.91 6.48 1.48 9.73 2.24 13.07 2.78 26.53 4.79 40.09 5.54 13.55 0.77 27.19 0.86 40.59-0.41 26.81-2.25 52.61-8.48 75.25-17.28 22.77-8.57 42.22-19.89 57.77-30.67q2.91-2.03 5.7-3.97 2.68-2.08 5.23-4.05 2.54-1.98 4.95-3.84c1.6-1.25 3.05-2.59 4.51-3.81 2.86-2.51 5.64-4.74 8.02-7.01q3.57-3.39 6.52-6.2c2-1.84 3.67-3.59 5.1-5.12q2.17-2.29 3.67-3.86c1.98-2.09 3.04-3.2 3.04-3.2 0 0 0.27-0.26 0.75-0.83q0.73-0.85 2.14-2.5c1.84-2.22 4.74-5.32 8.08-9.6 6.79-8.45 16.01-21.1 25.27-37.64 9.19-16.54 18.46-37.04 24.73-60.54 6.51-23.4 10.16-49.7 9.73-76.59-0.08-13.46-1.43-27.03-3.6-40.43-0.61-3.34-1.02-6.72-1.8-10.02q-1.09-4.97-2.17-9.92c-1.74-6.53-3.33-13.08-5.51-19.41-1.92-6.4-4.4-12.57-6.7-18.72-2.64-6.02-5.03-12.07-8-17.76-1.45-2.85-2.75-5.76-4.3-8.51q-2.31-4.14-4.58-8.2c-1.45-2.75-3.22-5.27-4.79-7.88q-1.21-1.94-2.4-3.85l-1.2-1.91-0.91-1.3c-2.63-3.75-5.02-7.18-7.03-10.04-2.15-2.76-3.88-4.99-5.04-6.47q-1.6-2.05-3.1-3.85c-1.03-1.18-2.08-2.25-3.08-3.28-2.03-2.05-3.96-3.86-5.92-5.56-3.96-3.34-8.18-6.01-13.09-9.17 2.9 5.16 5.46 9.27 8.23 13.51 1.35 2.15 2.81 4.29 4.47 6.53q1.26 1.65 2.64 3.46 1.33 1.84 2.86 3.84c1.11 1.44 2.77 3.6 4.84 6.28 1.93 2.78 4.24 6.09 6.78 9.73l0.88 1.26 1.16 1.84q1.15 1.86 2.32 3.73c1.52 2.52 3.24 4.96 4.63 7.62q2.2 3.93 4.43 7.93c1.5 2.65 2.75 5.47 4.16 8.23 2.87 5.5 5.18 11.36 7.73 17.17 2.23 5.95 4.63 11.91 6.48 18.11 2.11 6.12 3.64 12.46 5.34 18.77q1.04 4.79 2.1 9.6c0.75 3.19 1.15 6.46 1.74 9.69 2.09 12.96 3.41 26.09 3.49 39.11 0.41 26.02-3.11 51.46-9.4 74.1-6.06 22.74-15.02 42.56-23.91 58.56-8.95 16.01-17.86 28.24-24.43 36.42-3.22 4.14-6.04 7.14-7.81 9.3q-1.37 1.59-2.07 2.41c-0.46 0.55-0.73 0.81-0.73 0.81 0 0-1.02 1.07-2.94 3.1q-1.45 1.52-3.55 3.73c-1.39 1.48-3 3.18-4.94 4.95q-2.86 2.72-6.32 6.01c-2.29 2.19-4.99 4.34-7.76 6.77-1.41 1.19-2.82 2.48-4.36 3.69q-2.34 1.8-4.8 3.71-2.47 1.91-5.06 3.92-2.69 1.88-5.51 3.84c-15.05 10.42-33.85 21.37-55.88 29.65-21.9 8.5-46.87 14.52-72.8 16.7-12.96 1.23-26.16 1.13-39.27 0.38-13.12-0.72-26.14-2.67-38.78-5.36-3.15-0.74-6.33-1.28-9.42-2.17q-4.64-1.25-9.24-2.49c-3.06-0.88-6.04-1.92-9.04-2.86q-2.24-0.73-4.46-1.46-2.19-0.82-4.37-1.64c-11.67-4.18-22.56-9.41-32.77-14.75-5.03-2.81-10-5.46-14.59-8.47-2.31-1.47-4.65-2.85-6.85-4.34q-2.93-2.04-5.76-4.01-2.45-1.71-4.54-3.17c-2.68-2.07-4.84-3.73-6.28-4.84q-2-1.53-3.84-2.86-1.81-1.38-3.46-2.64c-2.24-1.66-4.38-3.12-6.53-4.47-4.24-2.77-8.35-5.33-13.51-8.23z"/>
		<path id="&lt;Path&gt;" class="s3" d="m579.25 969.45c-2.9-5.16-5.46-9.27-8.23-13.51-1.35-2.15-2.81-4.29-4.47-6.53q-1.26-1.65-2.64-3.46-1.33-1.84-2.86-3.84c-1.11-1.44-2.77-3.6-4.84-6.28q-1.46-2.09-3.17-4.54-1.97-2.83-4.01-5.76c-1.49-2.2-2.86-4.54-4.34-6.85-3.01-4.59-5.66-9.56-8.47-14.59-5.34-10.21-10.57-21.1-14.75-32.77q-0.82-2.18-1.64-4.37-0.73-2.22-1.46-4.46c-0.94-3-1.98-5.98-2.86-9.04q-1.24-4.6-2.49-9.24c-0.89-3.09-1.43-6.27-2.17-9.42-2.69-12.64-4.64-25.66-5.36-38.78-0.75-13.11-0.85-26.31 0.38-39.27 2.18-25.93 8.2-50.9 16.7-72.8 8.28-22.03 19.23-40.83 29.65-55.88q1.96-2.82 3.84-5.51 2.01-2.6 3.92-5.06 1.91-2.47 3.71-4.8c1.21-1.54 2.5-2.95 3.69-4.36 2.43-2.77 4.58-5.47 6.77-7.76q3.29-3.46 6.01-6.32c1.77-1.94 3.47-3.55 4.95-4.94q2.21-2.1 3.73-3.55c2.03-1.92 3.1-2.94 3.1-2.94 0 0 0.26-0.27 0.81-0.73q0.82-0.7 2.41-2.07c2.16-1.77 5.16-4.59 9.3-7.81 8.18-6.57 20.41-15.48 36.42-24.43 16-8.89 35.82-17.85 58.56-23.91 22.64-6.29 48.08-9.81 74.1-9.4 13.02 0.08 26.15 1.4 39.11 3.49 3.23 0.59 6.5 0.99 9.69 1.74q4.81 1.06 9.6 2.1c6.31 1.7 12.65 3.23 18.77 5.34 6.2 1.85 12.16 4.25 18.11 6.48 5.81 2.55 11.67 4.86 17.17 7.73 2.76 1.41 5.58 2.66 8.23 4.16q4 2.23 7.93 4.43c2.66 1.39 5.1 3.11 7.62 4.63q1.88 1.17 3.73 2.32l1.84 1.16 1.26 0.88c3.64 2.54 6.95 4.85 9.73 6.78 2.68 2.07 4.84 3.73 6.28 4.84q2 1.53 3.84 2.86 1.81 1.38 3.46 2.64c2.24 1.66 4.38 3.12 6.53 4.47 4.24 2.77 8.35 5.33 13.51 8.23-3.16-4.91-5.83-9.13-9.17-13.09-1.7-1.96-3.51-3.89-5.56-5.91-1.03-1.01-2.1-2.06-3.28-3.09q-1.8-1.5-3.85-3.1c-1.48-1.16-3.71-2.89-6.47-5.04-2.86-2.01-6.29-4.4-10.04-7.03l-1.3-0.91-1.91-1.2q-1.91-1.19-3.85-2.4c-2.61-1.57-5.13-3.34-7.88-4.79q-4.06-2.27-8.2-4.58c-2.75-1.55-5.66-2.85-8.51-4.3-5.69-2.97-11.74-5.36-17.76-8-6.15-2.3-12.32-4.78-18.72-6.7-6.33-2.18-12.88-3.77-19.41-5.51q-4.95-1.08-9.92-2.17c-3.3-0.78-6.68-1.19-10.02-1.8-13.4-2.17-26.97-3.52-40.43-3.6-26.89-0.43-53.19 3.22-76.59 9.73-23.5 6.27-44 15.54-60.54 24.73-16.54 9.26-29.19 18.48-37.64 25.27-4.28 3.34-7.38 6.24-9.6 8.08q-1.65 1.41-2.5 2.14c-0.57 0.48-0.83 0.75-0.83 0.75 0 0-1.11 1.06-3.2 3.04q-1.57 1.5-3.86 3.67c-1.53 1.43-3.28 3.1-5.12 5.1q-2.8 2.95-6.2 6.52c-2.27 2.37-4.5 5.16-7.01 8.02-1.22 1.46-2.56 2.91-3.81 4.51q-1.86 2.41-3.84 4.95-1.97 2.55-4.05 5.23-1.94 2.79-3.97 5.7c-10.78 15.55-22.1 35-30.67 57.76-8.8 22.65-15.03 48.45-17.28 75.26-1.28 13.4-1.18 27.04-0.41 40.59 0.75 13.56 2.76 27.02 5.54 40.09 0.76 3.25 1.33 6.54 2.24 9.73q1.3 4.8 2.58 9.56c0.91 3.16 1.99 6.25 2.96 9.34q0.76 2.32 1.51 4.62 0.85 2.26 1.7 4.51c4.32 12.07 9.72 23.34 15.25 33.89 2.91 5.2 5.65 10.34 8.76 15.09 1.52 2.39 2.95 4.8 4.49 7.08q2.11 3.02 4.15 5.95 1.78 2.53 3.29 4.68c2.15 2.77 3.88 4.99 5.04 6.48q1.6 2.04 3.1 3.84c1.03 1.18 2.08 2.25 3.08 3.28 2.02 2.05 3.96 3.86 5.91 5.56 3.97 3.34 8.19 6.01 13.1 9.17z"/>
		<path id="&lt;Path&gt;" class="s3" d="m388.9 1048.3c15.57 24.77 29.55 41.14 60.76 58.18 1.34 0.69 2.88 1.49 4.74 2.45 1.84 0.98 4.01 2.07 6.64 3.22 2.62 1.19 5.65 2.56 9.18 4.16 3.61 1.43 7.74 3.06 12.47 4.93 3.31 1.13 7.19 2.45 11.44 3.9 4.27 1.4 9.01 2.62 13.88 4.03 4.92 1.25 10.06 2.38 15.18 3.54 5.18 0.88 10.32 1.93 15.28 2.61 4.98 0.59 9.73 1.33 14.09 1.68 4.36 0.32 8.3 0.61 11.62 0.86 6.64 0.18 10.78 0.29 10.78 0.29 0 0 0.86 0.02 2.44 0.06 1.57 0.09 3.86 0 6.7-0.06 2.83-0.07 6.22-0.16 10.01-0.26 3.78-0.28 7.96-0.59 12.37-0.92 4.41-0.41 9.03-1.09 13.75-1.66 4.7-0.66 9.45-1.63 14.14-2.43 4.67-0.93 9.23-2.08 13.58-3.06 4.33-1.08 8.37-2.33 12.08-3.36 3.29-0.86 6.31-2.04 9.24-2.99 2.91-1.03 5.72-1.84 8.28-2.91q3.86-1.53 7.31-2.89 1.72-0.68 3.34-1.33 1.59-0.71 3.08-1.38c3.95-1.81 7.42-3.32 10.33-4.74q4.31-2.23 7.23-3.74c31.21-17.04 45.19-33.41 60.76-58.18-12.67 7.49-23.4 12.93-34.28 18.91-11.05 5.75-22.25 12.03-36.77 19.57q-2.7 1.37-6.68 3.39c-2.68 1.3-5.88 2.67-9.52 4.33q-1.37 0.61-2.84 1.27-1.49 0.58-3.07 1.21-3.17 1.24-6.73 2.64c-2.35 0.99-4.94 1.72-7.62 2.67-2.69 0.86-5.47 1.96-8.5 2.74-3.41 0.93-7.13 2.09-11.11 3.08-4.01 0.89-8.19 1.96-12.49 2.82-4.31 0.74-8.68 1.64-13 2.26-4.35 0.52-8.6 1.17-12.65 1.55-4.07 0.32-7.91 0.62-11.39 0.89-3.49 0.1-6.62 0.19-9.23 0.27-2.62 0.06-4.73 0.16-6.18 0.08-1.45-0.03-2.25-0.05-2.25-0.05 0 0-3.81-0.12-9.93-0.3-3.06-0.24-6.68-0.52-10.7-0.84-4.01-0.33-8.38-1.03-12.96-1.57-4.57-0.64-9.29-1.63-14.06-2.43-4.7-1.08-9.44-2.12-13.96-3.27-4.47-1.32-8.83-2.42-12.76-3.71-3.91-1.32-7.48-2.53-10.53-3.55-4.36-1.72-8.16-3.21-11.48-4.52-3.25-1.46-6.04-2.72-8.45-3.8-2.44-1.05-4.43-2.05-6.13-2.94-1.71-0.86-3.14-1.59-4.38-2.22-14.52-7.54-25.72-13.82-36.77-19.56-10.88-5.99-21.61-11.43-34.28-18.92z"/>
		<path id="&lt;Path&gt;" class="s3" d="m769.6 129.2c-15.57-24.77-29.56-41.14-60.76-58.18-1.34-0.69-2.89-1.49-4.74-2.45-1.84-0.98-4.01-2.07-6.64-3.22-2.62-1.19-5.65-2.56-9.18-4.16-3.61-1.43-7.74-3.06-12.47-4.93-3.32-1.13-7.19-2.45-11.44-3.9-4.27-1.4-9.01-2.62-13.88-4.03-4.92-1.25-10.06-2.38-15.18-3.54-5.18-0.88-10.32-1.93-15.28-2.61-4.99-0.59-9.73-1.33-14.09-1.68-4.36-0.32-8.3-0.61-11.62-0.86-6.64-0.18-10.78-0.29-10.78-0.29 0 0-0.86-0.02-2.44-0.06-1.57-0.09-3.86 0-6.7 0.06-2.84 0.07-6.22 0.16-10.01 0.26-3.78 0.28-7.96 0.59-12.37 0.92-4.41 0.41-9.03 1.09-13.75 1.66-4.7 0.66-9.45 1.63-14.14 2.43-4.67 0.93-9.23 2.08-13.58 3.06-4.33 1.08-8.37 2.33-12.08 3.36-3.29 0.86-6.31 2.04-9.25 2.99-2.9 1.03-5.72 1.84-8.27 2.91q-3.87 1.53-7.31 2.89-1.72 0.68-3.34 1.33-1.59 0.71-3.08 1.38c-3.95 1.81-7.42 3.32-10.33 4.75q-4.31 2.22-7.23 3.73c-31.21 17.04-45.19 33.41-60.76 58.18 12.67-7.49 23.4-12.93 34.28-18.91 11.05-5.75 22.24-12.03 36.77-19.57q2.7-1.37 6.68-3.39c2.68-1.3 5.88-2.67 9.52-4.33q1.37-0.61 2.84-1.27 1.49-0.58 3.07-1.2 3.17-1.25 6.73-2.65c2.35-0.99 4.94-1.72 7.61-2.67 2.7-0.86 5.48-1.96 8.51-2.74 3.41-0.93 7.13-2.09 11.11-3.08 4-0.89 8.19-1.96 12.48-2.82 4.32-0.74 8.68-1.64 13.01-2.26 4.34-0.52 8.6-1.17 12.65-1.55 4.07-0.32 7.91-0.62 11.39-0.89 3.49-0.1 6.62-0.19 9.23-0.27 2.62-0.06 4.72-0.16 6.18-0.08 1.45 0.03 2.25 0.05 2.25 0.05 0 0 3.81 0.12 9.93 0.3 3.06 0.24 6.68 0.52 10.7 0.84 4.01 0.33 8.38 1.03 12.96 1.57 4.57 0.64 9.29 1.63 14.05 2.43 4.71 1.08 9.44 2.12 13.97 3.27 4.47 1.32 8.83 2.42 12.76 3.71 3.91 1.32 7.48 2.53 10.53 3.55 4.36 1.72 8.16 3.21 11.48 4.52 3.25 1.46 6.04 2.72 8.45 3.8 2.44 1.05 4.43 2.05 6.13 2.94 1.71 0.86 3.14 1.59 4.38 2.22 14.52 7.54 25.72 13.82 36.77 19.57 10.88 5.98 21.61 11.42 34.28 18.91z"/>
		<path id="&lt;Path&gt;" class="s3" d="m1038.8 779.1c6.13-3.94 12.01-7.55 17.15-11.67 2.59-2.04 5.26-3.97 7.64-6.17q3.61-3.25 7.17-6.7c9.2-9.4 17.93-20.47 26.28-36.19 1.35-2.7 3.11-6.24 5.67-11.39 2.28-5.28 5.51-12.11 8.96-21.7 1.32-3.25 2.53-7.16 3.92-11.43 0.66-2.15 1.47-4.35 2.08-6.69q0.95-3.51 1.94-7.19c1.43-4.87 2.38-10.05 3.54-15.17 1.11-5.13 1.81-10.33 2.68-15.27 0.6-4.98 1.17-9.74 1.69-14.08 0.31-4.37 0.58-8.31 0.82-11.62 0.22-3.32 0.18-6.02 0.25-7.89 0.04-1.86 0.06-2.9 0.06-2.9 0 0 0.03-0.86 0.07-2.44 0.08-1.57 0-3.86-0.06-6.7-0.09-2.84-0.08-6.23-0.29-10.02-0.28-3.78-0.58-7.95-0.89-12.37-0.54-4.39-1.04-9.03-1.67-13.74-0.82-4.68-1.51-9.47-2.45-14.14-1.06-4.65-1.93-9.26-3.07-13.57-1.18-4.3-2.22-8.41-3.32-12.09-8.05-26.01-16.02-41-19.93-48.84-8.35-15.72-17.08-26.79-26.28-36.2q-3.56-3.44-7.17-6.69c-2.38-2.2-5.06-4.13-7.65-6.17-5.13-4.12-11.01-7.72-17.14-11.67 3.62 6.45 7.09 12.09 10.02 17.82 1.48 2.84 3.11 5.48 4.5 8.28q2.12 4.15 4.38 8.2c5.75 11.04 12.1 22.18 19.64 36.71 3.52 7.26 10.8 21.05 18.2 44.99 1 3.39 1.95 7.17 3.04 11.12 1.05 3.97 1.84 8.22 2.83 12.49 0.87 4.29 1.51 8.7 2.28 13.01 0.54 4.34 1.06 8.6 1.57 12.65 0.3 4.06 0.59 7.91 0.85 11.39 0.21 3.48 0.2 6.61 0.29 9.22 0.07 2.62 0.16 4.72 0.08 6.18-0.03 1.45-0.05 2.25-0.05 2.25 0 0-0.02 0.95-0.07 2.67-0.08 1.71-0.03 4.2-0.25 7.26-0.23 3.05-0.5 6.68-0.79 10.7-0.49 3.99-1.03 8.38-1.59 12.96-0.83 4.54-1.47 9.32-2.5 14.04-1.09 4.71-1.95 9.49-3.28 13.97q-0.91 3.38-1.78 6.61c-0.56 2.15-1.31 4.18-1.92 6.15-1.27 3.93-2.36 7.54-3.56 10.53-3.16 8.83-6.13 15.11-8.2 19.98-2.33 4.75-3.93 8.02-5.15 10.51-7.54 14.53-13.89 25.67-19.64 36.71q-2.26 4.05-4.38 8.2c-1.39 2.8-3.02 5.44-4.5 8.28-2.93 5.73-6.4 11.37-10.02 17.82z"/>
		<path id="&lt;Path&gt;" class="s3" d="m119.7 398.4c-6.13 3.95-12.01 7.55-17.15 11.67-2.59 2.04-5.26 3.97-7.64 6.17q-3.61 3.25-7.17 6.7c-9.2 9.4-17.93 20.48-26.28 36.19-1.35 2.7-3.11 6.24-5.68 11.39-2.28 5.28-5.51 12.11-8.95 21.7-1.32 3.25-2.53 7.16-3.92 11.43-0.66 2.15-1.47 4.35-2.08 6.69q-0.95 3.51-1.94 7.19c-1.43 4.87-2.38 10.06-3.54 15.17-1.11 5.14-1.81 10.33-2.68 15.27-0.6 4.98-1.17 9.74-1.69 14.08-0.31 4.37-0.58 8.31-0.82 11.62-0.22 3.32-0.18 6.02-0.25 7.89-0.04 1.86-0.06 2.9-0.06 2.9 0 0-0.03 0.86-0.07 2.44-0.08 1.57 0 3.86 0.06 6.7 0.09 2.84 0.08 6.23 0.29 10.02 0.28 3.78 0.58 7.95 0.89 12.37 0.53 4.39 1.04 9.04 1.67 13.74 0.82 4.68 1.51 9.47 2.45 14.14 1.06 4.65 1.93 9.26 3.07 13.57 1.18 4.3 2.22 8.41 3.32 12.09 8.05 26.01 16.02 41 19.93 48.84 8.35 15.72 17.08 26.79 26.28 36.2q3.56 3.44 7.17 6.69c2.38 2.2 5.05 4.13 7.64 6.17 5.14 4.12 11.02 7.73 17.15 11.67-3.62-6.45-7.09-12.09-10.02-17.82-1.49-2.84-3.11-5.48-4.5-8.28q-2.12-4.15-4.38-8.2c-5.75-11.03-12.1-22.18-19.64-36.71-3.52-7.26-10.8-21.05-18.2-44.99-1-3.39-1.95-7.17-3.04-11.12-1.05-3.97-1.84-8.22-2.83-12.49-0.87-4.29-1.51-8.7-2.28-13.01-0.54-4.34-1.07-8.6-1.57-12.65-0.3-4.06-0.59-7.91-0.85-11.39-0.21-3.48-0.2-6.61-0.29-9.22-0.07-2.62-0.16-4.72-0.08-6.18 0.03-1.45 0.05-2.25 0.05-2.25 0 0 0.02-0.95 0.07-2.67 0.07-1.71 0.03-4.2 0.25-7.26 0.23-3.05 0.49-6.68 0.79-10.7 0.49-3.99 1.03-8.38 1.59-12.96 0.83-4.54 1.47-9.32 2.5-14.04 1.09-4.71 1.95-9.48 3.28-13.96q0.91-3.39 1.78-6.62c0.56-2.15 1.31-4.18 1.92-6.15 1.26-3.93 2.36-7.54 3.56-10.53 3.16-8.83 6.13-15.11 8.2-19.98 2.32-4.75 3.93-8.02 5.15-10.51 7.54-14.53 13.89-25.67 19.64-36.71q2.26-4.05 4.38-8.2c1.39-2.8 3.01-5.44 4.5-8.28 2.93-5.73 6.4-11.37 10.02-17.82z"/>
		<path id="&lt;Path&gt;" class="s3" d="m1038.8 398.4c6.5-28.53 8.19-49.99-1.82-84.11-0.46-1.43-0.99-3.09-1.62-5.08-0.62-1.99-1.37-4.3-2.42-6.98-1.02-2.69-2.19-5.8-3.56-9.43-1.54-3.56-3.3-7.63-5.33-12.3-1.54-3.14-3.35-6.82-5.33-10.85-2.03-4-4.52-8.21-6.96-12.66-2.59-4.36-5.43-8.8-8.23-13.24-3.04-4.28-5.93-8.65-8.96-12.65-3.11-3.94-5.95-7.82-8.78-11.15-2.85-3.31-5.43-6.3-7.6-8.82-4.57-4.82-7.42-7.83-7.42-7.83 0 0-0.6-0.63-1.68-1.77-1.06-1.18-2.73-2.73-4.78-4.69-2.06-1.96-4.52-4.29-7.27-6.9-2.87-2.47-6.04-5.2-9.4-8.09-3.4-2.83-7.15-5.62-10.89-8.55-3.8-2.86-7.83-5.53-11.72-8.29-3.96-2.64-7.99-5.05-11.76-7.44-3.83-2.29-7.57-4.27-10.92-6.16-2.94-1.72-5.91-3.02-8.65-4.42-2.78-1.33-5.35-2.74-7.92-3.79q-3.81-1.66-7.21-3.13-1.7-0.73-3.29-1.42-1.63-0.62-3.16-1.2c-4.08-1.52-7.6-2.9-10.66-3.95q-4.62-1.48-7.75-2.48c-34.12-10.01-55.58-8.32-84.11-1.82 14.26 3.67 25.69 7.4 37.62 10.87 11.87 3.75 24.23 7.22 39.84 12.16q2.87 0.94 7.11 2.32c2.82 0.99 6.05 2.28 9.8 3.68q1.4 0.54 2.9 1.11 1.47 0.64 3.03 1.32 3.12 1.36 6.62 2.88c2.37 0.96 4.72 2.29 7.27 3.5 2.52 1.3 5.26 2.48 7.96 4.08 3.07 1.75 6.52 3.56 10.03 5.67 3.47 2.21 7.18 4.41 10.83 6.84 3.57 2.54 7.29 4.98 10.79 7.6 3.44 2.71 6.9 5.25 10.04 7.85 3.1 2.65 6.03 5.16 8.68 7.43 2.54 2.39 4.82 4.54 6.72 6.33 1.9 1.8 3.45 3.23 4.42 4.31 1.01 1.05 1.56 1.63 1.56 1.63 0 0 2.61 2.78 6.81 7.24 1.99 2.32 4.36 5.09 6.98 8.15 2.6 3.07 5.19 6.65 8.05 10.28 2.78 3.68 5.42 7.72 8.22 11.66 2.56 4.09 5.17 8.17 7.56 12.18 2.23 4.1 4.53 7.96 6.4 11.65 1.83 3.7 3.5 7.07 4.93 9.95 1.87 4.3 3.5 8.04 4.93 11.31 1.26 3.34 2.35 6.2 3.29 8.67 0.98 2.46 1.68 4.58 2.25 6.41 0.6 1.82 1.1 3.35 1.53 4.67 4.94 15.6 8.41 27.96 12.16 39.83 3.47 11.93 7.2 23.36 10.87 37.62z"/>
		<path id="&lt;Path&gt;" class="s3" d="m119.7 779.1c-6.5 28.53-8.19 49.99 1.82 84.11 0.46 1.43 0.99 3.09 1.62 5.08 0.62 1.99 1.37 4.3 2.42 6.98 1.02 2.69 2.19 5.8 3.56 9.43 1.54 3.56 3.3 7.63 5.33 12.3 1.54 3.14 3.35 6.82 5.33 10.85 2.03 4.01 4.51 8.21 6.96 12.66 2.59 4.36 5.43 8.8 8.23 13.24 3.04 4.28 5.93 8.66 8.96 12.65 3.11 3.94 5.94 7.82 8.78 11.15 2.85 3.31 5.43 6.3 7.6 8.82 4.57 4.82 7.42 7.83 7.42 7.83 0 0 0.6 0.63 1.68 1.77 1.05 1.18 2.73 2.73 4.78 4.69 2.06 1.96 4.52 4.29 7.27 6.9 2.87 2.47 6.04 5.2 9.4 8.09 3.4 2.83 7.15 5.62 10.89 8.55 3.79 2.86 7.83 5.54 11.72 8.29 3.96 2.64 7.99 5.05 11.76 7.44 3.83 2.29 7.57 4.27 10.92 6.16 2.94 1.72 5.91 3.02 8.65 4.42 2.78 1.33 5.35 2.75 7.92 3.79q3.81 1.66 7.2 3.13 1.7 0.73 3.3 1.42 1.63 0.62 3.16 1.2c4.08 1.52 7.6 2.9 10.66 3.95q4.62 1.48 7.75 2.48c34.12 10.01 55.58 8.32 84.11 1.82-14.26-3.67-25.69-7.4-37.62-10.87-11.87-3.75-24.23-7.22-39.84-12.16q-2.87-0.94-7.12-2.32c-2.81-0.99-6.04-2.28-9.79-3.68q-1.4-0.54-2.9-1.11-1.47-0.64-3.03-1.32-3.12-1.36-6.62-2.88c-2.37-0.96-4.72-2.29-7.27-3.5-2.52-1.3-5.26-2.48-7.96-4.08-3.07-1.75-6.52-3.56-10.04-5.67-3.46-2.21-7.17-4.41-10.82-6.84-3.57-2.53-7.29-4.98-10.79-7.6-3.44-2.7-6.9-5.25-10.04-7.85-3.1-2.65-6.03-5.16-8.68-7.42-2.54-2.4-4.82-4.55-6.72-6.34-1.9-1.8-3.46-3.23-4.42-4.31-1.01-1.05-1.56-1.63-1.56-1.63 0 0-2.61-2.78-6.81-7.24-1.99-2.32-4.36-5.09-6.98-8.15-2.6-3.07-5.19-6.65-8.05-10.28-2.78-3.68-5.42-7.72-8.22-11.66-2.56-4.09-5.17-8.17-7.56-12.18-2.23-4.1-4.53-7.96-6.4-11.64-1.83-3.71-3.51-7.08-4.93-9.96-1.87-4.3-3.5-8.04-4.93-11.31-1.26-3.34-2.35-6.2-3.29-8.67-0.98-2.46-1.68-4.58-2.25-6.41-0.6-1.82-1.1-3.35-1.53-4.66-4.94-15.61-8.41-27.96-12.16-39.84-3.47-11.93-7.2-23.36-10.87-37.62z"/>
		<path id="&lt;Path&gt;" class="s3" d="m388.9 129.2c-7.13-1.55-13.83-3.15-20.38-3.87-3.27-0.39-6.53-0.91-9.77-1.05q-4.85-0.25-9.8-0.33c-13.16 0.15-27.16 1.81-44.18 7.01-2.86 0.96-6.61 2.21-12.06 4.04-5.35 2.12-12.46 4.67-21.68 9.01-3.23 1.37-6.85 3.28-10.85 5.32-1.99 1.05-4.12 2.03-6.21 3.26q-3.14 1.81-6.45 3.7c-4.46 2.44-8.8 5.43-13.23 8.23-4.42 2.85-8.58 6.03-12.7 8.9-3.94 3.1-7.71 6.06-11.15 8.77-3.3 2.86-6.28 5.46-8.79 7.64-2.51 2.18-4.38 4.13-5.76 5.39-1.34 1.29-2.09 2.01-2.09 2.01 0 0-0.63 0.59-1.77 1.68-1.17 1.06-2.73 2.73-4.7 4.78-1.94 2.07-4.36 4.46-6.88 7.29-2.48 2.86-5.22 6.03-8.12 9.37-2.73 3.49-5.66 7.13-8.54 10.9-2.73 3.89-5.62 7.77-8.26 11.74-2.54 4.02-5.18 7.9-7.43 11.76-2.21 3.87-4.37 7.51-6.2 10.89-12.7 24.09-17.66 40.32-20.44 48.63-5.2 17.02-6.86 31.02-7.01 44.18q0.08 4.95 0.33 9.8c0.14 3.24 0.66 6.5 1.05 9.77 0.72 6.55 2.32 13.25 3.87 20.38 2-7.13 3.54-13.56 5.52-19.69 0.96-3.06 1.67-6.07 2.67-9.03q1.43-4.44 2.7-8.9c3.74-11.87 7.13-24.24 12.07-39.85 2.65-7.61 7.25-22.52 18.94-44.68 1.69-3.1 3.69-6.44 5.72-10.01 2.06-3.55 4.5-7.12 6.83-10.83 2.42-3.66 5.09-7.22 7.59-10.81 2.68-3.45 5.33-6.84 7.83-10.06 2.66-3.09 5.18-6.01 7.46-8.65 2.31-2.62 4.53-4.82 6.31-6.74 1.8-1.89 3.23-3.44 4.31-4.42 1.05-1 1.62-1.55 1.62-1.55 0 0 0.69-0.66 1.94-1.84 1.27-1.16 3-2.95 5.32-4.95 2.31-2 5.07-4.38 8.12-7.01 3.17-2.48 6.65-5.2 10.29-8.04 3.8-2.63 7.63-5.56 11.7-8.16 4.09-2.57 8.08-5.33 12.19-7.56q3.04-1.75 5.93-3.42c1.92-1.13 3.89-2.02 5.71-2.99 3.67-1.89 7-3.66 9.96-4.92 8.48-4.02 15.02-6.36 19.93-8.34 5.01-1.71 8.45-2.89 11.07-3.79 15.61-4.94 27.98-8.33 39.85-12.07q4.46-1.27 8.9-2.7c2.96-1 5.97-1.71 9.03-2.67 6.13-1.98 12.56-3.52 19.69-5.52z"/>
		<path id="&lt;Path&gt;" class="s3" d="m769.6 1048.3c7.13 1.55 13.83 3.15 20.38 3.87 3.27 0.39 6.53 0.91 9.77 1.05q4.85 0.25 9.8 0.33c13.16-0.15 27.16-1.81 44.18-7.01 2.86-0.96 6.61-2.21 12.06-4.04 5.35-2.12 12.46-4.67 21.68-9.01 3.23-1.37 6.85-3.28 10.85-5.32 1.99-1.05 4.12-2.03 6.21-3.25q3.14-1.81 6.45-3.71c4.45-2.44 8.79-5.43 13.23-8.23 4.42-2.85 8.58-6.03 12.7-8.9 3.94-3.1 7.71-6.06 11.15-8.77 3.3-2.86 6.28-5.46 8.79-7.64 2.51-2.18 4.38-4.12 5.75-5.39 1.35-1.29 2.1-2.01 2.1-2.01 0 0 0.63-0.59 1.77-1.68 1.17-1.06 2.73-2.73 4.7-4.78 1.94-2.07 4.35-4.46 6.87-7.29 2.49-2.86 5.23-6.03 8.13-9.37 2.73-3.49 5.65-7.13 8.54-10.9 2.73-3.89 5.62-7.77 8.26-11.73 2.54-4.03 5.18-7.91 7.43-11.77 2.2-3.87 4.37-7.51 6.2-10.89 12.69-24.09 17.66-40.32 20.44-48.63 5.2-17.02 6.86-31.02 7.01-44.18q-0.08-4.95-0.33-9.8c-0.14-3.24-0.66-6.5-1.05-9.77-0.72-6.55-2.32-13.25-3.87-20.38-2 7.13-3.54 13.56-5.52 19.69-0.96 3.06-1.67 6.07-2.67 9.03q-1.43 4.44-2.7 8.9c-3.74 11.87-7.13 24.24-12.07 39.85-2.65 7.61-7.25 22.52-18.94 44.68-1.69 3.1-3.7 6.45-5.72 10.01-2.06 3.55-4.51 7.12-6.83 10.83-2.42 3.66-5.09 7.23-7.59 10.81-2.69 3.45-5.33 6.84-7.83 10.06-2.66 3.09-5.18 6.01-7.46 8.65-2.31 2.62-4.53 4.82-6.31 6.74-1.8 1.89-3.23 3.44-4.31 4.42-1.05 1-1.62 1.55-1.62 1.55 0 0-0.69 0.66-1.94 1.84-1.27 1.16-3 2.95-5.32 4.95-2.31 2-5.07 4.38-8.12 7.01-3.17 2.48-6.65 5.2-10.29 8.05-3.8 2.62-7.63 5.55-11.7 8.16-4.1 2.56-8.08 5.32-12.19 7.55q-3.04 1.75-5.93 3.42c-1.92 1.13-3.89 2.02-5.71 2.99-3.68 1.89-7 3.66-9.96 4.92-8.48 4.02-15.02 6.36-19.93 8.34-5.01 1.72-8.45 2.89-11.07 3.79-15.61 4.94-27.98 8.33-39.85 12.07q-4.46 1.27-8.9 2.7c-2.96 1-5.97 1.71-9.03 2.67-6.13 1.98-12.56 3.52-19.69 5.52z"/>
		<path id="&lt;Path&gt;" fill-rule="evenodd" class="s4" d="m658.35 779.4c-48.95-48.75-79.24-116.21-79.24-190.74 0-74.42 30.19-141.78 79-190.51"/>
		<path id="&lt;Path&gt;" fill-rule="evenodd" class="s4" d="m500.26 779.4c48.95-48.75 79.24-116.21 79.24-190.74 0-74.42-30.19-141.78-79-190.51"/>
		<path id="&lt;Path&gt;" fill-rule="evenodd" class="s4" d="m388.68 667.82c48.75-48.95 116.21-79.24 190.74-79.24 74.42 0 141.78 30.19 190.51 79"/>
		<path id="&lt;Path&gt;" fill-rule="evenodd" class="s4" d="m388.68 509.73c48.75 48.95 116.21 79.24 190.74 79.24 74.42 0 141.78-30.19 190.51-79"/>
		<path id="&lt;Path&gt;" fill-rule="evenodd" class="s4" d="m500.4 779.46c-0.14-69.08 26.14-138.2 78.85-190.91 52.62-52.62 121.6-78.9 190.57-78.84"/>
		<path id="&lt;Path&gt;" fill-rule="evenodd" class="s4" d="m388.62 667.68c69.08 0.14 138.2-26.14 190.91-78.85 52.62-52.62 78.9-121.6 78.84-190.57"/>
		<path id="&lt;Path&gt;" fill-rule="evenodd" class="s4" d="m388.62 509.87c69.08-0.14 138.2 26.14 190.91 78.85 52.62 52.62 78.9 121.6 78.84 190.57"/>
		<path id="&lt;Path&gt;" fill-rule="evenodd" class="s4" d="m500.4 398.09c-0.14 69.08 26.14 138.2 78.85 190.91 52.62 52.62 121.6 78.9 190.57 78.84"/>
	</g>
</svg>